<?xml version="1.0" standalone="no"?>
<!DOCTYPE svg PUBLIC "-//W3C//DTD SVG 20010904//EN"
 "http://www.w3.org/TR/2001/REC-SVG-20010904/DTD/svg10.dtd">
<svg version="1.0" xmlns="http://www.w3.org/2000/svg"
 width="301.000000pt" height="167.000000pt" viewBox="0 0 301.000000 167.000000"
 preserveAspectRatio="xMidYMid meet">

<g transform="translate(0.000000,167.000000) scale(0.100000,-0.100000)"
fill="#000000" stroke="none">
<path d="M60 839 l0 -320 203 3 c188 3 206 5 255 27 67 30 135 105 157 172 19
58 22 157 6 217 -28 100 -124 188 -233 211 -27 6 -125 11 -218 11 l-170 0 0
-321z m366 135 c71 -34 97 -156 47 -222 -38 -51 -64 -63 -143 -65 l-75 -2 -3
153 -3 152 72 0 c45 0 84 -6 105 -16z"/>
<path d="M760 840 l0 -320 95 0 95 0 0 95 0 95 38 0 38 0 40 -95 39 -95 108 0
107 0 -56 111 c-55 111 -55 111 -34 126 70 49 94 104 88 203 -5 89 -38 142
-111 176 -49 23 -62 24 -249 24 l-198 0 0 -320z m352 133 c10 -9 18 -30 18
-49 0 -48 -29 -64 -112 -64 l-68 0 0 65 0 65 72 0 c52 0 76 -4 90 -17z"/>
<path d="M1514 1152 c-12 -8 -134 -220 -134 -233 0 -5 18 -9 39 -9 22 0 43 -5
46 -10 4 -6 -16 -47 -44 -93 -28 -45 -51 -86 -51 -90 0 -4 18 -7 39 -7 22 0
42 -4 46 -10 3 -5 -13 -46 -35 -90 -23 -45 -40 -85 -38 -90 4 -10 288 207 288
220 0 6 -13 10 -28 10 -16 0 -32 3 -35 7 -4 3 25 39 64 79 39 41 68 78 64 84
-3 5 -24 10 -45 10 -21 0 -41 3 -44 8 -2 4 36 52 84 107 49 55 89 103 90 108
0 9 -292 9 -306 -1z"/>
<path d="M1860 840 l0 -320 95 0 95 0 0 105 0 104 143 3 142 3 3 82 3 82 -143
3 -143 3 -3 43 -3 42 145 0 146 0 0 85 0 85 -240 0 -240 0 0 -320z"/>
<path d="M2410 1075 l0 -85 85 0 85 0 0 -235 0 -235 95 0 95 0 0 235 0 235 85
0 85 0 0 85 0 85 -265 0 -265 0 0 -85z"/>
</g>
</svg>
